<?xml version="1.0" encoding="UTF-8"?><svg id="_レイヤー_2" xmlns="http://www.w3.org/2000/svg" xmlns:xlink="http://www.w3.org/1999/xlink" viewBox="0 0 595 435.61"><defs><style>.cls-1{font-family:CascadiaMonoRoman-Light, 'Cascadia Mono';font-size:60.05px;font-variation-settings:'wght' 300;letter-spacing:-.01em;}.cls-2{clip-path:url(#clippath);}.cls-3{fill:none;}</style><clipPath id="clippath"><rect class="cls-3" y="5.61" width="595" height="430"/></clipPath></defs><g id="_レイヤー_1-2"><g class="cls-2"><path d="M111.96,360.56C37.32,360.56,0,321.46,0,243.23V5.61H51.07V243.23c0,23.34,4.99,40.92,14.98,52.75,9.98,11.83,25.62,17.75,46.9,17.75,41.25,0,61.87-23.5,61.87-70.5V5.61h51.07V243.23c0,39.11-9.66,68.44-28.97,88-19.32,19.56-47.63,29.33-84.96,29.33Z"/><text class="cls-1" transform="translate(253.6 50.84)"><tspan x="0" y="0">Nostalgia</tspan><tspan x="0" y="80.06">Cafe</tspan></text><rect x="253.6" y="177.48" width="32.57" height="258.13"/><path d="M393.83,198.2c-12.07-16.07-29.89-24.12-53.46-24.12-13.99,0-25.29,3.17-33.92,9.51-3.16,2.32-5.45,4.76-6.9,6.5v30.54c.24-.51,.51-1.03,.81-1.55,.7-1.19,2.74-3.99,7.63-7.47,6.5-4.64,14.64-6.96,24.43-6.96,14.43,0,25.37,5.43,32.82,16.3,7.44,10.87,11.16,26.95,11.16,48.23,0,20.15-3.72,35.38-11.16,45.68-7.44,10.3-18.38,15.45-32.82,15.45-9.79,0-17.93-2.32-24.43-6.96-2.67-1.9-5.43-3.83-7.62-7.47-.3-.5-.57-1-.81-1.5v29.27c.32,.43,.57,.75,.57,.75,1.33,1.72,3.7,4.47,7.01,6.97,8.4,6.34,19.48,9.51,33.24,9.51,23.57,0,41.39-7.75,53.46-23.27,12.07-15.51,18.1-38.32,18.1-68.44s-6.03-54.91-18.1-70.99Z"/><path d="M524.17,319.77c-6.46,5.89-15.18,8.85-26.19,8.85s-18.84-2.8-24.7-8.41c-5.87-5.6-8.8-13.56-8.8-23.86v-118.88h-35.86v118.88c0,20.49,5.16,36.37,15.48,47.63,10.32,11.27,24.89,16.9,43.73,16.9,12.07,0,22.22-3.28,30.45-9.85,2.15-1.71,4.11-3.63,5.89-5.73v-25.54Z"/><polygon points="570.3 324.89 570.3 296.36 570.3 284.47 570.3 177.48 537.56 177.48 537.56 359.19 595 357.49 595 328.62 570.3 324.89"/></g></g></svg>