<?xml version="1.0" encoding="UTF-8"?><svg id="_レイヤー_2" xmlns="http://www.w3.org/2000/svg" xmlns:xlink="http://www.w3.org/1999/xlink" viewBox="0 0 595 430"><defs><style>.cls-1{fill:#fff;}.cls-2{clip-path:url(#clippath);}.cls-3{fill:none;}</style><clipPath id="clippath"><rect class="cls-3" width="595" height="430"/></clipPath></defs><g id="_レイヤー_1-2"><g class="cls-2"><path class="cls-1" d="M111.96,354.95C37.32,354.95,0,315.84,0,237.62V0H51.07V237.62c0,23.34,4.99,40.92,14.98,52.75,9.98,11.83,25.62,17.75,46.9,17.75,41.25,0,61.87-23.5,61.87-70.5V0h51.07V237.62c0,39.11-9.66,68.44-28.97,88-19.32,19.56-47.63,29.33-84.96,29.33Z"/><g><path class="cls-1" d="M258.39,45.23V3.59h3.86V45.23h-3.86Zm19.74,0l-15.54-36.59h-2.04V3.59h3.59l15.54,36.59h1.29v5.04h-2.83Zm1.87,0V3.59h3.85V45.23h-3.85Z"/><path class="cls-1" d="M305.57,45.81c-4.13,0-7.34-1.41-9.64-4.22-2.3-2.81-3.45-6.78-3.45-11.9s1.15-9.11,3.45-11.92c2.3-2.8,5.51-4.21,9.64-4.21s7.36,1.4,9.65,4.21c2.29,2.81,3.43,6.78,3.43,11.92s-1.14,9.09-3.43,11.9c-2.29,2.81-5.51,4.22-9.65,4.22Zm0-3.67c2.88,0,5.12-1.08,6.7-3.25,1.59-2.17,2.38-5.24,2.38-9.21s-.79-7.06-2.38-9.22c-1.59-2.16-3.82-3.24-6.7-3.24s-5.12,1.08-6.7,3.24c-1.59,2.16-2.38,5.23-2.38,9.22s.79,7.04,2.38,9.21c1.59,2.17,3.82,3.25,6.7,3.25Z"/><path class="cls-1" d="M337.62,45.81c-2.28,0-4.21-.07-5.8-.21-1.59-.14-3.02-.36-4.31-.67l.47-3.72c2.01,.31,3.77,.55,5.29,.7,1.52,.16,2.97,.23,4.35,.23,3.82,0,6.59-.4,8.31-1.2,1.72-.8,2.58-2.09,2.58-3.87,0-1.23-.4-2.24-1.2-3.02-.8-.78-2.07-1.39-3.83-1.82l-6.95-1.76c-3.02-.76-5.2-1.78-6.54-3.05-1.34-1.27-2.02-2.93-2.02-4.98,0-3.13,1.26-5.39,3.78-6.79,2.52-1.4,6.6-2.1,12.22-2.1,1.36,0,2.63,.04,3.81,.13,1.18,.09,2.48,.24,3.9,.45l-.44,3.49c-1.58-.16-2.95-.26-4.13-.32-1.18-.06-2.28-.09-3.32-.09-4.15,0-7.16,.41-9.02,1.22-1.87,.81-2.8,2.12-2.8,3.91,0,1.08,.47,1.98,1.4,2.73s2.45,1.37,4.56,1.88l5.55,1.35c3.17,.78,5.47,1.86,6.89,3.23,1.42,1.37,2.13,3.21,2.13,5.51,0,3.07-1.17,5.3-3.52,6.69-2.35,1.39-6.14,2.08-11.38,2.08Z"/><path class="cls-1" d="M359.45,17.72v-3.58h27.1v3.58h-27.1Zm8.91,12.84V4.77h3.91V30.57h-3.91Zm11.71,15.25c-3.99,0-6.94-1.03-8.85-3.08-1.91-2.05-2.86-5.2-2.86-9.44v-5.07h3.91v4.98c0,3.03,.68,5.28,2.04,6.74,1.36,1.47,3.48,2.2,6.34,2.2,1.13,0,2.22-.05,3.29-.16s2.18-.25,3.34-.43l.44,3.55c-1.29,.23-2.54,.41-3.77,.53-1.23,.12-2.52,.18-3.88,.18Z"/><path class="cls-1" d="M404.44,45.81c-3.12,0-5.52-.73-7.23-2.18s-2.56-3.51-2.56-6.17c0-3.26,1.15-5.73,3.45-7.39,2.3-1.66,5.68-2.49,10.13-2.49,2.08,0,4,.1,5.74,.29,1.74,.2,3.14,.5,4.19,.91l-.61,2.99c-1.27-.41-2.76-.65-4.47-.72-1.71-.07-3.37-.1-4.96-.1-6.42,0-9.64,2.09-9.64,6.27,0,1.64,.55,2.91,1.65,3.8,1.1,.89,2.64,1.33,4.63,1.33,2.14,0,4.03-.37,5.65-1.1,1.62-.73,2.9-1.72,3.81-2.95,.91-1.23,1.37-2.58,1.37-4.05v-3.58l2.04,7.98h-2.51l.64-.7c-.1,1.58-.65,2.96-1.65,4.13-1,1.17-2.34,2.09-4,2.74-1.67,.65-3.56,.98-5.68,.98Zm12-.29l-.47-11.23-.38-.38v-7.12c0-3.17-.85-5.47-2.56-6.9-1.7-1.44-4.38-2.19-8.02-2.27l-6.57-.12,.58-3.64,5.78,.09c5.06,.08,8.76,1.2,11.1,3.37,2.34,2.17,3.5,5.52,3.5,10.06v14.48l5.32,.47v2.9l-8.29,.29Z"/><path class="cls-1" d="M429.16,4.82V1.25h10.31v3.58h-10.31Zm20.18,40.99c-3.54,0-6.16-.93-7.86-2.79-1.69-1.86-2.54-4.71-2.54-8.56V1.25h3.91V34.38c0,1.76,.25,3.21,.75,4.35,.5,1.14,1.29,2,2.38,2.57,1.09,.57,2.53,.85,4.32,.85,1.6,0,3.59-.31,5.99-.94l.44,3.58c-1.27,.35-2.48,.61-3.65,.78-1.17,.17-2.41,.25-3.74,.25Z"/><path class="cls-1" d="M475.91,45.81c-4.05,0-7.12-1.34-9.21-4.02-2.09-2.68-3.14-6.62-3.14-11.82s1.06-9.48,3.17-12.26c2.11-2.77,5.21-4.16,9.3-4.16,2.76,0,4.98,.61,6.66,1.82,1.67,1.21,2.72,2.98,3.12,5.31h2.16l-1.9,8.56c0-3.99-.79-7.01-2.38-9.06-1.59-2.05-3.91-3.08-6.97-3.08s-5.34,1.08-6.91,3.25c-1.57,2.17-2.35,5.38-2.35,9.62s.78,7.08,2.35,9.16c1.57,2.08,3.88,3.12,6.94,3.12s5.37-1.03,6.95-3.08c1.58-2.05,2.37-5.06,2.37-9.03l2.1,8.3h-2.48c-.39,2.29-1.4,4.09-3.02,5.4-1.63,1.31-3.88,1.96-6.76,1.96Zm-9.84,13.43l-.17-3.61,9.35-.35c3.76-.14,6.5-1.19,8.22-3.15,1.72-1.96,2.59-4.87,2.61-8.72V21.1l.38-6.95h3.5v28.32c0,5.53-1.22,9.61-3.67,12.24-2.44,2.63-6.32,4.04-11.64,4.24l-8.59,.29Z"/><path class="cls-1" d="M499.87,45.23v-3.58h13.08v3.58h-13.08Zm1.75-27.5v-3.58h14.63v3.58h-14.63Zm12.38-10.35c-.93,0-1.73-.33-2.39-1-.66-.66-.99-1.47-.99-2.4s.33-1.74,.99-2.4c.66-.66,1.46-1,2.39-1s1.73,.33,2.39,1c.66,.66,.99,1.47,.99,2.4s-.33,1.74-.99,2.4-1.46,1-2.39,1Zm-1.67,37.85V15.67h3.91v29.55h-3.91Zm3.3,0v-3.58h10.81v3.58h-10.81Z"/><path class="cls-1" d="M542.23,45.81c-3.12,0-5.52-.73-7.23-2.18-1.7-1.46-2.56-3.51-2.56-6.17,0-3.26,1.15-5.73,3.45-7.39,2.3-1.66,5.68-2.49,10.13-2.49,2.08,0,4,.1,5.74,.29,1.74,.2,3.14,.5,4.19,.91l-.61,2.99c-1.27-.41-2.76-.65-4.47-.72-1.71-.07-3.37-.1-4.96-.1-6.42,0-9.64,2.09-9.64,6.27,0,1.64,.55,2.91,1.65,3.8,1.1,.89,2.64,1.33,4.63,1.33,2.14,0,4.03-.37,5.65-1.1,1.63-.73,2.9-1.72,3.81-2.95,.91-1.23,1.37-2.58,1.37-4.05v-3.58l2.04,7.98h-2.51l.64-.7c-.1,1.58-.65,2.96-1.65,4.13-1,1.17-2.34,2.09-4,2.74-1.67,.65-3.56,.98-5.68,.98Zm12-.29l-.47-11.23-.38-.38v-7.12c0-3.17-.85-5.47-2.56-6.9-1.7-1.44-4.38-2.19-8.02-2.27l-6.57-.12,.58-3.64,5.78,.09c5.06,.08,8.76,1.2,11.1,3.37,2.34,2.17,3.5,5.52,3.5,10.06v14.48l5.32,.47v2.9l-8.29,.29Z"/><path class="cls-1" d="M275.24,125.87c-12.58,0-18.87-7.15-18.87-21.46,0-6.78,1.59-12.04,4.76-15.76,3.17-3.72,7.64-5.59,13.4-5.59,2.75,0,5.14,.45,7.18,1.36,2.04,.91,3.53,2.2,4.47,3.88l-2.69,2.76c-1.01-1.41-2.3-2.5-3.86-3.28-1.56-.78-3.23-1.17-5.02-1.17-4.32,0-7.78,1.52-10.38,4.56-2.6,3.04-3.9,7.35-3.9,12.94,0,12.14,5.17,18.21,15.51,18.21,3.15,0,6.26-.69,9.32-2.08l.93,3.46c-3.45,1.45-7.07,2.17-10.86,2.17Z"/><path class="cls-1" d="M301.1,125.87c-3.12,0-5.52-.73-7.23-2.18-1.7-1.46-2.55-3.51-2.55-6.17,0-3.26,1.15-5.73,3.45-7.39,2.3-1.66,5.67-2.49,10.13-2.49,2.08,0,4,.1,5.74,.29,1.74,.2,3.14,.5,4.19,.91l-.61,2.99c-1.27-.41-2.76-.65-4.47-.72-1.71-.07-3.37-.1-4.96-.1-6.42,0-9.64,2.09-9.64,6.27,0,1.64,.55,2.91,1.65,3.8,1.1,.89,2.64,1.33,4.63,1.33,2.14,0,4.03-.37,5.65-1.1,1.62-.73,2.9-1.72,3.81-2.95,.91-1.23,1.37-2.58,1.37-4.05v-3.58l2.04,7.98h-2.51l.64-.7c-.1,1.58-.65,2.96-1.65,4.13-1,1.17-2.34,2.09-4,2.74-1.67,.65-3.56,.98-5.68,.98Zm12-.29l-.47-11.23-.38-.38v-7.12c0-3.17-.85-5.47-2.56-6.9-1.7-1.44-4.38-2.19-8.02-2.27l-6.57-.12,.58-3.64,5.78,.09c5.06,.08,8.76,1.2,11.1,3.37,2.34,2.17,3.5,5.52,3.5,10.06v14.48l5.32,.47v2.9l-8.29,.29Z"/><path class="cls-1" d="M324.95,105.58v-3.58h27.69v3.58h-27.69Zm10.43,19.7v-28.44c0-10.75,4.51-16.13,13.52-16.13,2.06,0,4.05,.2,5.96,.59l-.64,3.49c-1.13-.16-2.12-.26-2.98-.32-.86-.06-1.69-.09-2.51-.09-6.29,0-9.43,4.06-9.43,12.17v28.73h-3.91Z"/><path class="cls-1" d="M377.18,125.87c-5.12,0-9.08-1.43-11.89-4.28-2.8-2.85-4.21-6.9-4.21-12.14s1.18-8.92,3.53-11.68c2.36-2.77,5.69-4.15,9.99-4.15,4.01,0,7.12,1.25,9.33,3.75s3.31,6.06,3.31,10.67c0,1.21-.06,2.23-.17,3.05h-22.84v-3.34h19.27c0-3.36-.77-5.96-2.32-7.78s-3.72-2.74-6.53-2.74c-3.12,0-5.53,1.07-7.24,3.2-1.71,2.13-2.57,5.12-2.57,8.97,0,4.1,1.13,7.28,3.4,9.51,2.27,2.24,5.48,3.36,9.62,3.36,1.15,0,2.36-.07,3.64-.22,1.27-.15,2.5-.35,3.67-.6l.55,3.61c-1.34,.29-2.76,.5-4.25,.63-1.49,.13-2.93,.19-4.31,.19Z"/></g><rect class="cls-1" x="253.6" y="171.87" width="32.57" height="258.13"/><path class="cls-1" d="M393.83,192.59c-12.07-16.07-29.89-24.12-53.46-24.12-13.99,0-25.29,3.17-33.92,9.51-3.16,2.32-5.45,4.76-6.9,6.5v30.54c.24-.51,.51-1.03,.81-1.55,.7-1.19,2.74-3.99,7.63-7.47,6.5-4.64,14.64-6.96,24.43-6.96,14.43,0,25.37,5.43,32.82,16.3,7.44,10.87,11.16,26.95,11.16,48.23,0,20.15-3.72,35.38-11.16,45.68-7.44,10.3-18.38,15.45-32.82,15.45-9.79,0-17.93-2.32-24.43-6.96-2.67-1.9-5.43-3.83-7.62-7.47-.3-.5-.57-1-.81-1.5v29.27c.32,.43,.57,.75,.57,.75,1.33,1.72,3.7,4.47,7.01,6.97,8.4,6.34,19.48,9.51,33.24,9.51,23.57,0,41.39-7.75,53.46-23.27,12.07-15.51,18.1-38.32,18.1-68.44s-6.03-54.91-18.1-70.99Z"/><path class="cls-1" d="M524.17,314.16c-6.46,5.89-15.18,8.85-26.19,8.85s-18.84-2.8-24.7-8.41c-5.87-5.6-8.8-13.56-8.8-23.86v-118.88h-35.86v118.88c0,20.49,5.16,36.37,15.48,47.63,10.32,11.27,24.89,16.9,43.73,16.9,12.07,0,22.22-3.28,30.45-9.85,2.15-1.71,4.11-3.63,5.89-5.73v-25.54Z"/><polygon class="cls-1" points="570.3 319.28 570.3 290.74 570.3 278.86 570.3 171.87 537.56 171.87 537.56 353.58 595 351.88 595 323.01 570.3 319.28"/></g></g></svg>